<?xml version="1.0" standalone="no"?>
<!DOCTYPE svg PUBLIC "-//W3C//DTD SVG 20010904//EN"
 "http://www.w3.org/TR/2001/REC-SVG-20010904/DTD/svg10.dtd">
<svg version="1.0" xmlns="http://www.w3.org/2000/svg"
 width="485.000000pt" height="485.000000pt" viewBox="0 0 485.000000 485.000000"
 preserveAspectRatio="xMidYMid meet">

<g transform="translate(0.000000,485.000000) scale(0.100000,-0.100000)"
fill="#000000" stroke="none">
<path d="M2170 4804 c-341 -40 -695 -164 -985 -342 -722 -444 -1155 -1206
-1155 -2031 0 -651 231 -1224 680 -1685 356 -366 808 -604 1325 -697 114 -20
162 -23 390 -23 328 -1 492 24 775 116 127 41 391 169 515 250 325 211 598
513 765 847 74 149 157 388 184 530 21 112 31 271 17 271 -6 0 -11 -10 -11
-23 0 -59 -80 -271 -185 -493 -67 -142 -188 -347 -273 -460 -88 -118 -294
-324 -412 -411 -836 -616 -2002 -568 -2775 114 -327 290 -560 669 -666 1086
-127 501 -71 1015 161 1476 268 536 762 946 1329 1106 207 58 307 70 576 70
189 -1 274 -5 350 -18 440 -76 803 -259 1108 -560 319 -314 528 -718 612
-1185 19 -104 43 -148 95 -174 110 -56 240 23 240 145 0 130 -103 497 -197
702 -348 760 -1036 1277 -1851 1389 -139 20 -449 20 -612 0z"/>
<path d="M2880 2470 l0 -520 65 0 65 0 0 299 0 299 34 21 c43 27 102 28 116 2
6 -12 10 -132 10 -320 l0 -301 65 0 66 0 -3 346 -3 346 -33 29 c-49 44 -129
34 -206 -25 -19 -14 -37 -26 -40 -26 -3 0 -6 83 -6 185 l0 185 -65 0 -65 0 0
-520z"/>
<path d="M3841 2482 c-74 -279 -137 -513 -139 -520 -3 -10 9 -12 53 -10 l58 3
138 515 c76 283 139 516 139 518 0 1 -26 2 -57 2 l-58 0 -134 -508z"/>
<path d="M900 2870 l0 -70 65 0 65 0 0 70 0 70 -65 0 -65 0 0 -70z"/>
<path d="M2050 2870 l0 -70 65 0 65 0 0 70 0 70 -65 0 -65 0 0 -70z"/>
<path d="M1407 2686 c-20 -7 -53 -26 -72 -40 l-35 -27 0 35 0 36 -60 0 -60 0
0 -370 0 -370 60 0 60 0 0 300 0 300 42 30 c47 35 96 39 121 12 15 -16 17 -54
17 -330 l0 -312 60 0 60 0 0 296 0 295 32 30 c34 31 83 45 116 35 37 -12 42
-56 42 -362 l0 -294 60 0 60 0 0 303 c0 186 -4 317 -11 342 -32 117 -157 137
-264 43 -31 -27 -45 -35 -45 -24 0 9 -13 30 -28 47 -33 37 -95 47 -155 25z"/>
<path d="M2460 2688 c-76 -22 -121 -82 -135 -180 l-6 -48 64 0 64 0 7 50 c8
58 33 90 72 90 58 0 84 -41 84 -134 l0 -52 -84 -38 c-46 -21 -102 -53 -124
-71 -112 -96 -108 -290 8 -350 62 -32 134 -9 177 56 l28 43 8 -52 9 -52 56 0
57 0 -3 277 c-1 153 -7 302 -13 331 -23 113 -137 168 -269 130z m120 -600
c-29 -27 -72 -36 -96 -20 -19 12 -34 49 -34 82 0 56 43 113 120 159 l35 21 3
-108 3 -107 -31 -27z"/>
<path d="M900 2320 l0 -370 65 0 65 0 0 370 0 370 -65 0 -65 0 0 -370z"/>
<path d="M2050 2320 l0 -370 65 0 65 0 0 370 0 370 -65 0 -65 0 0 -370z"/>
<path d="M562 2513 l-173 -125 3 -70 3 -71 175 -123 c96 -68 176 -124 177
-124 2 0 3 29 3 64 l0 65 -130 93 c-71 51 -129 95 -130 98 0 3 59 47 130 99
l130 93 0 64 c0 35 -3 64 -7 63 -5 0 -86 -57 -181 -126z"/>
<path d="M4200 2578 l0 -64 130 -94 c72 -52 130 -96 130 -99 0 -3 -59 -48
-130 -99 l-130 -93 0 -65 c0 -35 1 -64 3 -64 1 0 81 56 177 124 l175 123 2 74
3 74 -172 120 c-94 66 -175 122 -180 123 -4 2 -8 -25 -8 -60z"/>
</g>
</svg>
